<mxfile host="app.diagrams.net" agent="Mozilla/5.0 (Windows NT 10.0; Win64; x64) AppleWebKit/537.36 (KHTML, like Gecko) Chrome/127.0.0.0 Safari/537.36 Edg/127.0.0.0" version="24.8.0">
  <diagram id="6a731a19-8d31-9384-78a2-239565b7b9f0" name="Page-1">
    <mxGraphModel dx="1431" dy="-66" grid="1" gridSize="10" guides="1" tooltips="1" connect="1" arrows="1" fold="1" page="1" pageScale="1" pageWidth="1169" pageHeight="827" background="#ffffff" math="0" shadow="0">
      <root>
        <mxCell id="0" />
        <mxCell id="1" parent="0" />
        <mxCell id="56" value="Project&#xa;" style="strokeColor=#BAC8D3;fillColor=#23445D;fontSize=24;strokeWidth=2;fontFamily=Helvetica;html=1;fontColor=#FFFFFF;fontStyle=0;spacingBottom=8;spacingRight=0;spacingLeft=83;" parent="1" vertex="1">
          <mxGeometry x="154" y="850.5" width="2030" height="80" as="geometry" />
        </mxCell>
        <mxCell id="uW_D1F0HnQo9HSfuQDNR-166" style="edgeStyle=orthogonalEdgeStyle;rounded=0;orthogonalLoop=1;jettySize=auto;html=1;exitX=1;exitY=0.5;exitDx=0;exitDy=0;" edge="1" parent="1" source="57">
          <mxGeometry relative="1" as="geometry">
            <mxPoint x="240" y="1070" as="targetPoint" />
          </mxGeometry>
        </mxCell>
        <mxCell id="57" value="需求阶段" style="strokeColor=#BAC8D3;fillColor=#23445D;fontSize=24;strokeWidth=2;horizontal=0;fontFamily=Helvetica;html=1;fontColor=#FFFFFF;fontStyle=0" parent="1" vertex="1">
          <mxGeometry x="154" y="930.5" width="86" height="399.5" as="geometry" />
        </mxCell>
        <mxCell id="59" value="v 1.0" style="strokeColor=#BAC8D3;fillColor=#5d7f99;fontSize=19;strokeWidth=2;fontFamily=Helvetica;html=1;labelBackgroundColor=none;fontColor=#FFFFFF;" parent="1" vertex="1">
          <mxGeometry x="154" y="850.5" width="90" height="80" as="geometry" />
        </mxCell>
        <mxCell id="67" value="设计阶段" style="strokeColor=#BAC8D3;fillColor=#23445D;fontSize=24;strokeWidth=2;horizontal=0;fontFamily=Helvetica;html=1;fontColor=#FFFFFF;fontStyle=0" parent="1" vertex="1">
          <mxGeometry x="154" y="1330" width="86" height="400" as="geometry" />
        </mxCell>
        <mxCell id="68" value="" style="strokeColor=#FFFFFF;fillColor=#BAC8D3;fontSize=18;strokeWidth=2;fontFamily=Helvetica;html=1;opacity=60;" parent="1" vertex="1">
          <mxGeometry x="244" y="930.5" width="326" height="100" as="geometry" />
        </mxCell>
        <mxCell id="uW_D1F0HnQo9HSfuQDNR-165" value="" style="edgeStyle=orthogonalEdgeStyle;rounded=0;orthogonalLoop=1;jettySize=auto;html=1;" edge="1" parent="1" source="69" target="57">
          <mxGeometry relative="1" as="geometry" />
        </mxCell>
        <mxCell id="69" value="" style="strokeColor=#FFFFFF;fillColor=#BAC8D3;fontSize=18;strokeWidth=2;fontFamily=Helvetica;html=1;opacity=90;" parent="1" vertex="1">
          <mxGeometry x="244" y="1030.5" width="1486" height="100" as="geometry" />
        </mxCell>
        <mxCell id="uW_D1F0HnQo9HSfuQDNR-176" style="edgeStyle=orthogonalEdgeStyle;rounded=0;orthogonalLoop=1;jettySize=auto;html=1;exitX=0.25;exitY=1;exitDx=0;exitDy=0;entryX=0.5;entryY=0;entryDx=0;entryDy=0;" edge="1" parent="1" source="70" target="uW_D1F0HnQo9HSfuQDNR-172">
          <mxGeometry relative="1" as="geometry" />
        </mxCell>
        <mxCell id="70" value="" style="strokeColor=#FFFFFF;fillColor=#BAC8D3;fontSize=18;strokeWidth=2;fontFamily=Helvetica;html=1;opacity=60;" parent="1" vertex="1">
          <mxGeometry x="244" y="1130.5" width="1486" height="100" as="geometry" />
        </mxCell>
        <mxCell id="71" value="" style="strokeColor=#FFFFFF;fillColor=#BAC8D3;fontSize=18;strokeWidth=2;fontFamily=Helvetica;html=1;opacity=90;" parent="1" vertex="1">
          <mxGeometry x="244" y="1230.5" width="1486" height="100" as="geometry" />
        </mxCell>
        <mxCell id="72" value="" style="strokeColor=#FFFFFF;fillColor=#BAC8D3;fontSize=18;strokeWidth=2;fontFamily=Helvetica;html=1;opacity=60;" parent="1" vertex="1">
          <mxGeometry x="244" y="1330.5" width="1486" height="100" as="geometry" />
        </mxCell>
        <mxCell id="73" value="" style="strokeColor=#FFFFFF;fillColor=#BAC8D3;fontSize=18;strokeWidth=2;fontFamily=Helvetica;html=1;opacity=90;" parent="1" vertex="1">
          <mxGeometry x="244" y="1430.5" width="1486" height="100" as="geometry" />
        </mxCell>
        <mxCell id="74" value="" style="strokeColor=#FFFFFF;fillColor=#BAC8D3;fontSize=18;strokeWidth=2;fontFamily=Helvetica;html=1;opacity=60;" parent="1" vertex="1">
          <mxGeometry x="244" y="1530.5" width="1486" height="100" as="geometry" />
        </mxCell>
        <mxCell id="140" value="" style="group" parent="1" vertex="1" connectable="0">
          <mxGeometry x="244" y="890.5" width="700" height="40" as="geometry" />
        </mxCell>
        <mxCell id="141" value="产品" style="strokeColor=#BAC8D3;fillColor=#5d7f99;fontSize=19;strokeWidth=2;fontFamily=Helvetica;html=1;labelBackgroundColor=none;fontColor=#FFFFFF;" parent="140" vertex="1">
          <mxGeometry width="330" height="40" as="geometry" />
        </mxCell>
        <mxCell id="142" value="设计" style="strokeColor=#BAC8D3;fillColor=#5d7f99;fontSize=19;strokeWidth=2;fontFamily=Helvetica;html=1;labelBackgroundColor=none;fontColor=#FFFFFF;" parent="140" vertex="1">
          <mxGeometry x="330" width="304" height="40" as="geometry" />
        </mxCell>
        <mxCell id="uW_D1F0HnQo9HSfuQDNR-150" value="" style="group" vertex="1" connectable="0" parent="1">
          <mxGeometry x="433.3299999999999" y="890.5" width="1750" height="40" as="geometry" />
        </mxCell>
        <mxCell id="uW_D1F0HnQo9HSfuQDNR-153" value="运维" style="strokeColor=#BAC8D3;fillColor=#5d7f99;fontSize=19;strokeWidth=2;fontFamily=Helvetica;html=1;labelBackgroundColor=none;fontColor=#FFFFFF;" vertex="1" parent="uW_D1F0HnQo9HSfuQDNR-150">
          <mxGeometry x="1293.33" width="456.67" height="40" as="geometry" />
        </mxCell>
        <mxCell id="uW_D1F0HnQo9HSfuQDNR-173" style="edgeStyle=orthogonalEdgeStyle;rounded=0;orthogonalLoop=1;jettySize=auto;html=1;exitX=0.5;exitY=1;exitDx=0;exitDy=0;entryX=0.5;entryY=0;entryDx=0;entryDy=0;" edge="1" parent="1" source="uW_D1F0HnQo9HSfuQDNR-167" target="uW_D1F0HnQo9HSfuQDNR-169">
          <mxGeometry relative="1" as="geometry" />
        </mxCell>
        <mxCell id="uW_D1F0HnQo9HSfuQDNR-167" value="&lt;font style=&quot;font-size: 18px;&quot;&gt;立项&lt;/font&gt;" style="rounded=1;whiteSpace=wrap;html=1;" vertex="1" parent="1">
          <mxGeometry x="350" y="950.5" width="120" height="60" as="geometry" />
        </mxCell>
        <mxCell id="uW_D1F0HnQo9HSfuQDNR-174" style="edgeStyle=orthogonalEdgeStyle;rounded=0;orthogonalLoop=1;jettySize=auto;html=1;exitX=0.5;exitY=1;exitDx=0;exitDy=0;entryX=0.5;entryY=0;entryDx=0;entryDy=0;" edge="1" parent="1" source="uW_D1F0HnQo9HSfuQDNR-169" target="uW_D1F0HnQo9HSfuQDNR-171">
          <mxGeometry relative="1" as="geometry" />
        </mxCell>
        <mxCell id="uW_D1F0HnQo9HSfuQDNR-169" value="需求分析" style="rounded=0;whiteSpace=wrap;html=1;fillColor=#1ba1e2;strokeColor=#006EAF;fontColor=#ffffff;" vertex="1" parent="1">
          <mxGeometry x="350" y="1050.5" width="120" height="60" as="geometry" />
        </mxCell>
        <mxCell id="uW_D1F0HnQo9HSfuQDNR-171" value="PRD及原型&lt;div&gt;&lt;br&gt;&lt;/div&gt;" style="rounded=0;whiteSpace=wrap;html=1;fillColor=#1ba1e2;strokeColor=#006EAF;fontColor=#ffffff;" vertex="1" parent="1">
          <mxGeometry x="350" y="1150.5" width="120" height="49.5" as="geometry" />
        </mxCell>
        <mxCell id="uW_D1F0HnQo9HSfuQDNR-178" style="edgeStyle=orthogonalEdgeStyle;rounded=0;orthogonalLoop=1;jettySize=auto;html=1;exitX=0;exitY=0.5;exitDx=0;exitDy=0;entryX=0;entryY=0.5;entryDx=0;entryDy=0;" edge="1" parent="1" source="uW_D1F0HnQo9HSfuQDNR-172" target="uW_D1F0HnQo9HSfuQDNR-169">
          <mxGeometry relative="1" as="geometry">
            <Array as="points">
              <mxPoint x="310" y="1266" />
              <mxPoint x="310" y="1081" />
            </Array>
          </mxGeometry>
        </mxCell>
        <mxCell id="uW_D1F0HnQo9HSfuQDNR-179" value="不通过" style="edgeLabel;html=1;align=center;verticalAlign=middle;resizable=0;points=[];" vertex="1" connectable="0" parent="uW_D1F0HnQo9HSfuQDNR-178">
          <mxGeometry x="0.0529" y="6" relative="1" as="geometry">
            <mxPoint y="1" as="offset" />
          </mxGeometry>
        </mxCell>
        <mxCell id="uW_D1F0HnQo9HSfuQDNR-185" style="edgeStyle=orthogonalEdgeStyle;rounded=0;orthogonalLoop=1;jettySize=auto;html=1;exitX=1;exitY=0.5;exitDx=0;exitDy=0;entryX=0.5;entryY=0;entryDx=0;entryDy=0;" edge="1" parent="1" source="uW_D1F0HnQo9HSfuQDNR-172" target="uW_D1F0HnQo9HSfuQDNR-183">
          <mxGeometry relative="1" as="geometry" />
        </mxCell>
        <mxCell id="uW_D1F0HnQo9HSfuQDNR-192" value="通过" style="edgeLabel;html=1;align=center;verticalAlign=middle;resizable=0;points=[];" vertex="1" connectable="0" parent="uW_D1F0HnQo9HSfuQDNR-185">
          <mxGeometry x="-0.2307" y="1" relative="1" as="geometry">
            <mxPoint as="offset" />
          </mxGeometry>
        </mxCell>
        <mxCell id="uW_D1F0HnQo9HSfuQDNR-172" value="需求评审" style="rhombus;whiteSpace=wrap;html=1;" vertex="1" parent="1">
          <mxGeometry x="370" y="1230.5" width="80" height="71" as="geometry" />
        </mxCell>
        <mxCell id="uW_D1F0HnQo9HSfuQDNR-187" style="edgeStyle=orthogonalEdgeStyle;rounded=0;orthogonalLoop=1;jettySize=auto;html=1;exitX=0.5;exitY=1;exitDx=0;exitDy=0;entryX=0.5;entryY=0;entryDx=0;entryDy=0;" edge="1" parent="1" source="uW_D1F0HnQo9HSfuQDNR-183" target="uW_D1F0HnQo9HSfuQDNR-186">
          <mxGeometry relative="1" as="geometry" />
        </mxCell>
        <mxCell id="uW_D1F0HnQo9HSfuQDNR-183" value="UI设计" style="rounded=0;whiteSpace=wrap;html=1;fillColor=#1ba1e2;strokeColor=#006EAF;fontColor=#ffffff;" vertex="1" parent="1">
          <mxGeometry x="640" y="1350.5" width="120" height="60" as="geometry" />
        </mxCell>
        <mxCell id="uW_D1F0HnQo9HSfuQDNR-190" style="edgeStyle=orthogonalEdgeStyle;rounded=0;orthogonalLoop=1;jettySize=auto;html=1;exitX=0;exitY=0.5;exitDx=0;exitDy=0;entryX=0;entryY=0.5;entryDx=0;entryDy=0;" edge="1" parent="1" source="uW_D1F0HnQo9HSfuQDNR-186" target="uW_D1F0HnQo9HSfuQDNR-183">
          <mxGeometry relative="1" as="geometry">
            <Array as="points">
              <mxPoint x="500" y="1481" />
              <mxPoint x="500" y="1381" />
            </Array>
          </mxGeometry>
        </mxCell>
        <mxCell id="uW_D1F0HnQo9HSfuQDNR-191" value="不通过" style="edgeLabel;html=1;align=center;verticalAlign=middle;resizable=0;points=[];" vertex="1" connectable="0" parent="uW_D1F0HnQo9HSfuQDNR-190">
          <mxGeometry x="0.0556" y="6" relative="1" as="geometry">
            <mxPoint as="offset" />
          </mxGeometry>
        </mxCell>
        <mxCell id="uW_D1F0HnQo9HSfuQDNR-195" style="edgeStyle=orthogonalEdgeStyle;rounded=0;orthogonalLoop=1;jettySize=auto;html=1;exitX=1;exitY=0.5;exitDx=0;exitDy=0;" edge="1" parent="1" source="uW_D1F0HnQo9HSfuQDNR-186" target="uW_D1F0HnQo9HSfuQDNR-194">
          <mxGeometry relative="1" as="geometry" />
        </mxCell>
        <mxCell id="uW_D1F0HnQo9HSfuQDNR-196" value="通过" style="edgeLabel;html=1;align=center;verticalAlign=middle;resizable=0;points=[];" vertex="1" connectable="0" parent="uW_D1F0HnQo9HSfuQDNR-195">
          <mxGeometry x="-0.2025" y="-2" relative="1" as="geometry">
            <mxPoint as="offset" />
          </mxGeometry>
        </mxCell>
        <mxCell id="uW_D1F0HnQo9HSfuQDNR-186" value="设计评审" style="rhombus;whiteSpace=wrap;html=1;" vertex="1" parent="1">
          <mxGeometry x="660" y="1444.75" width="80" height="71" as="geometry" />
        </mxCell>
        <mxCell id="uW_D1F0HnQo9HSfuQDNR-188" style="edgeStyle=orthogonalEdgeStyle;rounded=0;orthogonalLoop=1;jettySize=auto;html=1;exitX=0.5;exitY=1;exitDx=0;exitDy=0;entryX=0.109;entryY=1.053;entryDx=0;entryDy=0;entryPerimeter=0;" edge="1" parent="1" source="uW_D1F0HnQo9HSfuQDNR-171" target="70">
          <mxGeometry relative="1" as="geometry" />
        </mxCell>
        <mxCell id="143" value="前端" style="strokeColor=#BAC8D3;fillColor=#5d7f99;fontSize=19;strokeWidth=2;fontFamily=Helvetica;html=1;labelBackgroundColor=none;fontColor=#FFFFFF;" parent="1" vertex="1">
          <mxGeometry x="880" y="890.5" width="290" height="40" as="geometry" />
        </mxCell>
        <mxCell id="uW_D1F0HnQo9HSfuQDNR-214" style="edgeStyle=orthogonalEdgeStyle;rounded=0;orthogonalLoop=1;jettySize=auto;html=1;exitX=0.5;exitY=1;exitDx=0;exitDy=0;entryX=0.5;entryY=0;entryDx=0;entryDy=0;" edge="1" parent="1" source="uW_D1F0HnQo9HSfuQDNR-194">
          <mxGeometry relative="1" as="geometry">
            <mxPoint x="1030" y="1645" as="targetPoint" />
          </mxGeometry>
        </mxCell>
        <mxCell id="uW_D1F0HnQo9HSfuQDNR-194" value="前端设计" style="rounded=0;whiteSpace=wrap;html=1;fillColor=#1ba1e2;strokeColor=#006EAF;fontColor=#ffffff;" vertex="1" parent="1">
          <mxGeometry x="960" y="1550.5" width="120" height="60" as="geometry" />
        </mxCell>
        <mxCell id="uW_D1F0HnQo9HSfuQDNR-198" value="" style="strokeColor=#FFFFFF;fillColor=#BAC8D3;fontSize=18;strokeWidth=2;fontFamily=Helvetica;html=1;opacity=90;" vertex="1" parent="1">
          <mxGeometry x="240" y="1630.5" width="1486" height="100" as="geometry" />
        </mxCell>
        <mxCell id="uW_D1F0HnQo9HSfuQDNR-205" style="edgeStyle=orthogonalEdgeStyle;rounded=0;orthogonalLoop=1;jettySize=auto;html=1;exitX=1;exitY=0.5;exitDx=0;exitDy=0;" edge="1" parent="1" target="uW_D1F0HnQo9HSfuQDNR-204">
          <mxGeometry relative="1" as="geometry">
            <mxPoint x="1080" y="1680.5" as="sourcePoint" />
          </mxGeometry>
        </mxCell>
        <mxCell id="uW_D1F0HnQo9HSfuQDNR-206" value="通过" style="edgeLabel;html=1;align=center;verticalAlign=middle;resizable=0;points=[];" vertex="1" connectable="0" parent="uW_D1F0HnQo9HSfuQDNR-205">
          <mxGeometry x="0.0205" y="-1" relative="1" as="geometry">
            <mxPoint x="-1" as="offset" />
          </mxGeometry>
        </mxCell>
        <mxCell id="uW_D1F0HnQo9HSfuQDNR-202" value="后台" style="strokeColor=#BAC8D3;fillColor=#5d7f99;fontSize=19;strokeWidth=2;fontFamily=Helvetica;html=1;labelBackgroundColor=none;fontColor=#FFFFFF;" vertex="1" parent="1">
          <mxGeometry x="1160" y="890.5" width="280" height="40" as="geometry" />
        </mxCell>
        <mxCell id="uW_D1F0HnQo9HSfuQDNR-203" value="测试" style="strokeColor=#BAC8D3;fillColor=#5d7f99;fontSize=19;strokeWidth=2;fontFamily=Helvetica;html=1;labelBackgroundColor=none;fontColor=#FFFFFF;" vertex="1" parent="1">
          <mxGeometry x="1440" y="890.5" width="290" height="40" as="geometry" />
        </mxCell>
        <mxCell id="uW_D1F0HnQo9HSfuQDNR-204" value="测试分析" style="rounded=0;whiteSpace=wrap;html=1;fillColor=#1ba1e2;strokeColor=#006EAF;fontColor=#ffffff;" vertex="1" parent="1">
          <mxGeometry x="1480" y="1659.5" width="120" height="60" as="geometry" />
        </mxCell>
        <mxCell id="uW_D1F0HnQo9HSfuQDNR-207" value="研测阶段" style="strokeColor=#BAC8D3;fillColor=#23445D;fontSize=24;strokeWidth=2;horizontal=0;fontFamily=Helvetica;html=1;fontColor=#FFFFFF;fontStyle=0" vertex="1" parent="1">
          <mxGeometry x="154" y="1730.5" width="86" height="400" as="geometry" />
        </mxCell>
        <mxCell id="uW_D1F0HnQo9HSfuQDNR-208" value="" style="strokeColor=#FFFFFF;fillColor=#BAC8D3;fontSize=18;strokeWidth=2;fontFamily=Helvetica;html=1;opacity=60;" vertex="1" parent="1">
          <mxGeometry x="244" y="1731" width="1486" height="100" as="geometry" />
        </mxCell>
        <mxCell id="uW_D1F0HnQo9HSfuQDNR-209" value="" style="strokeColor=#FFFFFF;fillColor=#BAC8D3;fontSize=18;strokeWidth=2;fontFamily=Helvetica;html=1;opacity=90;" vertex="1" parent="1">
          <mxGeometry x="244" y="1831" width="1486" height="100" as="geometry" />
        </mxCell>
        <mxCell id="uW_D1F0HnQo9HSfuQDNR-210" value="" style="strokeColor=#FFFFFF;fillColor=#BAC8D3;fontSize=18;strokeWidth=2;fontFamily=Helvetica;html=1;opacity=60;" vertex="1" parent="1">
          <mxGeometry x="244" y="1931" width="1486" height="100" as="geometry" />
        </mxCell>
        <mxCell id="uW_D1F0HnQo9HSfuQDNR-211" value="" style="strokeColor=#FFFFFF;fillColor=#BAC8D3;fontSize=18;strokeWidth=2;fontFamily=Helvetica;html=1;opacity=90;" vertex="1" parent="1">
          <mxGeometry x="240" y="2031" width="1486" height="100" as="geometry" />
        </mxCell>
        <mxCell id="uW_D1F0HnQo9HSfuQDNR-212" value="测试排期" style="rounded=0;whiteSpace=wrap;html=1;fillColor=#1ba1e2;strokeColor=#006EAF;fontColor=#ffffff;" vertex="1" parent="1">
          <mxGeometry x="1480" y="1751" width="120" height="60" as="geometry" />
        </mxCell>
        <mxCell id="uW_D1F0HnQo9HSfuQDNR-213" value="测试用例" style="rounded=0;whiteSpace=wrap;html=1;fillColor=#1ba1e2;strokeColor=#006EAF;fontColor=#ffffff;" vertex="1" parent="1">
          <mxGeometry x="1480" y="1851" width="120" height="60" as="geometry" />
        </mxCell>
        <mxCell id="uW_D1F0HnQo9HSfuQDNR-215" value="设计评审" style="rhombus;whiteSpace=wrap;html=1;" vertex="1" parent="1">
          <mxGeometry x="985" y="1648.5" width="80" height="71" as="geometry" />
        </mxCell>
        <mxCell id="uW_D1F0HnQo9HSfuQDNR-216" value="" style="endArrow=none;dashed=1;html=1;dashPattern=1 3;strokeWidth=2;rounded=0;" edge="1" parent="1">
          <mxGeometry width="50" height="50" relative="1" as="geometry">
            <mxPoint x="450" y="1190" as="sourcePoint" />
            <mxPoint x="500" y="1140" as="targetPoint" />
          </mxGeometry>
        </mxCell>
        <mxCell id="uW_D1F0HnQo9HSfuQDNR-217" value="" style="strokeColor=#FFFFFF;fillColor=#BAC8D3;fontSize=18;strokeWidth=2;fontFamily=Helvetica;html=1;opacity=60;" vertex="1" parent="1">
          <mxGeometry x="580" y="930.5" width="326" height="100" as="geometry" />
        </mxCell>
        <mxCell id="uW_D1F0HnQo9HSfuQDNR-218" value="" style="endArrow=none;html=1;rounded=0;" edge="1" parent="1">
          <mxGeometry width="50" height="50" relative="1" as="geometry">
            <mxPoint x="840" y="1190" as="sourcePoint" />
            <mxPoint x="890" y="1140" as="targetPoint" />
          </mxGeometry>
        </mxCell>
      </root>
    </mxGraphModel>
  </diagram>
</mxfile>
